# xmcd CD database file
#
# Track frame offsets:
#	150
#	12962
#	20100
#	32325
#	45262
#	54837
#	68350
#	79150
#	89687
#	103750
#	117050
#	127287
#	141012
#	152437
#	165400
#	176725
#	187025
#	198550
#	210087
#	223212
#
# Disc length: 3140 seconds
#
# Revision: 3
# Processed by: cddbd v1.5.2PL0 Copyright (c) Steve Scherf et al.
# Submitted via: CDex 1.80
#
DISCID=0a0c4214
DTITLE=Various Artist - Country Gospel Giants
DYEAR=1993
DGENRE=Country Gospel
TTITLE0=The Unclouded Day - George Jones
TTITLE1=Old Time Religion - Jim Reeves
TTITLE2=Take The World But Give Me Jesus - George Jones 
TTITLE3=Hobo Heaven - Boxcar Willie
TTITLE4=Boat Of Life - George Jones
TTITLE5=WhenI Lay My Burden Down - Roy Acuff
TTITLE6=The Gold Ole Bible - George Jones
TTITLE7=Somebody Bigger Than You And I - Sons Of The Pioneers
TTITLE8=Will There Be Stars In My Crown - George Jones
TTITLE9=Halleluyah Special - Carl Perkins
TTITLE10=If You Believe - George Jones 
TTITLE11=Chapel In THe Moonlight - Faron Young
TTITLE12=How Beautiful Heaven Must Be - George Jones
TTITLE13=Driftin' Too Far From The Shore - Roy Acuff
TTITLE14=Leaning On The Everlasting Arm - George Jones
TTITLE15=An Evening Prayer - Jim Reeves
TTITLE16=Lord You've Been Mighty Good To Me - George Jones
TTITLE17=Dear God - Patsy Cline
TTITLE18=Flowers For Mama - George Jones
TTITLE19=I'll Fly Away - George Jones 
EXTD=YEAR: 1993
EXTT0=Marvel MARC-791
EXTT1=
EXTT2=
EXTT3=
EXTT4=
EXTT5=
EXTT6=
EXTT7=
EXTT8=
EXTT9=
EXTT10=
EXTT11=
EXTT12=
EXTT13=
EXTT14=
EXTT15=
EXTT16=
EXTT17=
EXTT18=
EXTT19=
PLAYORDER=
